<?xml version="1.0" standalone="no"?>
<!DOCTYPE svg PUBLIC "-//W3C//DTD SVG 20010904//EN"
 "http://www.w3.org/TR/2001/REC-SVG-20010904/DTD/svg10.dtd">
<svg version="1.0" xmlns="http://www.w3.org/2000/svg"
 width="300.000000pt" height="300.000000pt" viewBox="0 0 300.000000 300.000000"
 preserveAspectRatio="xMidYMid meet">
<metadata>
Created by potrace 1.14, written by Peter Selinger 2001-2017
</metadata>
<g transform="translate(0.000000,300.000000) scale(0.100000,-0.100000)"
fill="#000000" stroke="none">
<path d="M1423 2116 c-32 -25 -105 -93 -163 -151 -95 -97 -102 -106 -73 -100
49 10 73 -8 73 -55 0 -98 83 -92 199 14 53 49 66 56 102 56 28 0 59 -10 96
-31 57 -33 79 -34 166 -11 22 6 51 7 67 2 29 -8 29 -8 14 16 -9 13 -46 46 -83
73 -36 26 -104 81 -151 120 -84 72 -145 111 -174 111 -8 0 -40 -20 -73 -44z"/>
<path d="M989 1757 c-19 -12 -49 -48 -68 -80 l-34 -57 -56 6 c-31 3 -84 12
-118 21 -35 8 -73 13 -85 9 -15 -3 -39 -32 -66 -76 -49 -80 -138 -160 -217
-196 l-50 -23 278 0 279 -1 -29 -33 c-43 -49 -81 -79 -121 -93 -25 -8 -32 -14
-22 -18 8 -4 134 -5 280 -4 259 3 265 3 262 23 -4 23 -21 59 -46 98 l-18 27
678 1 c486 0 673 3 657 11 -12 6 -40 37 -63 69 -33 47 -49 61 -80 69 -22 6
-50 8 -64 4 -13 -3 -49 -1 -79 6 -48 10 -60 8 -113 -12 -46 -17 -77 -22 -137
-20 -68 2 -89 -2 -167 -33 -79 -31 -101 -35 -179 -35 l-90 0 -43 57 c-57 75
-85 90 -191 101 -103 11 -126 27 -163 109 -18 40 -33 57 -63 72 l-39 20 -33
-22z"/>
<path d="M95 983 c13 -53 104 -230 166 -324 87 -130 274 -315 405 -402 257
-170 526 -251 834 -251 413 0 765 146 1055 438 127 128 192 215 270 359 l47
87 -184 1 c-100 0 -190 2 -198 3 -8 2 -148 6 -310 10 -162 4 -313 9 -335 11
-22 2 -130 6 -240 10 -362 11 -1010 46 -1305 70 -230 20 -214 21 -205 -12z"/>
</g>
</svg>
